<svg width="395.40518mm" height="395.40521mm" viewBox="0 0 1494.4449 1494.4449" version="1.1" id="svg5" inkscape:version="1.2 (dc2aedaf03, 2022-05-15)" sodipodi:docname="bloomers design.svg" inkscape:export-filename="bloomers logo1-transparent1 bg.png" inkscape:export-xdpi="120" inkscape:export-ydpi="120"
   xmlns:inkscape="http://www.inkscape.org/namespaces/inkscape"
   xmlns:sodipodi="http://sodipodi.sourceforge.net/DTD/sodipodi-0.dtd"
   xmlns="http://www.w3.org/2000/svg"
   xmlns:svg="http://www.w3.org/2000/svg">
   <sodipodi:namedview id="namedview7" pagecolor="#505050" bordercolor="#eeeeee" borderopacity="1" inkscape:pageshadow="0" inkscape:pageopacity="0" inkscape:pagecheckerboard="0" inkscape:document-units="in" showgrid="false" inkscape:snap-global="false" inkscape:zoom="0.17923729" inkscape:cx="1640.2837" inkscape:cy="-390.54374" inkscape:window-width="1920" inkscape:window-height="1009" inkscape:window-x="-8" inkscape:window-y="-8" inkscape:window-maximized="1" inkscape:current-layer="layer1" inkscape:snap-object-midpoints="true" units="mm" inkscape:showpageshadow="0" inkscape:deskcolor="#505050" />
   <defs id="defs2" />
   <g inkscape:label="Layer 1" inkscape:groupmode="layer" id="layer1" transform="translate(4663.1291,913.9145)">
      <path d="m -4357.8141,-913.9145 h 883.8147 c 167.9216,0 305.315,137.3919 305.315,305.3151 v 883.8146 c 0,167.9243 -137.3934,305.3151 -305.315,305.3151 h -883.8147 c -167.9237,0 -305.315,-137.3908 -305.315,-305.3151 v -883.8146 c 0,-167.9232 137.3913,-305.3151 305.315,-305.3151" style="fill:#ffffff;fill-opacity:1;fill-rule:evenodd;stroke:none;stroke-width:9.01252;stroke-opacity:1" id="path1176-9-2-28-9-3" inkscape:export-filename="D:\Desktop\designn\bloomers4.png" inkscape:export-xdpi="96" inkscape:export-ydpi="96" />
      <path d="m -4384.0375,-426.90591 c 2.7138,37.56992 38.9697,55.20067 66.0456,81.77373 65.034,63.88307 68.8471,96.79903 78.9827,170.59803 12.1722,-55.96266 47.6222,-354.04458 -81.0602,-325.66816 -31.7085,7.01017 -68.6028,39.97227 -63.9681,73.2964" style="fill:#8ac546;fill-opacity:1;fill-rule:evenodd;stroke:none;stroke-width:7.44888" id="path1438-2-73-1" />
      <path d="m -4363.214,-689.45369 c 27.9437,33.27116 37.4052,91.59879 43.8537,132.37178 20.9188,-38.69917 21.9006,-87.27853 11.0623,-127.87427 -6.2964,-23.50483 -25.3044,-70.30178 -58.7798,-72.68838 -5.1353,-0.23611 -10.3421,0.62348 -15.1414,2.32103 -20.8345,7.26723 -14.7085,22.54861 -6.3791,35.53867 7.9331,12.33086 16.1826,19.36634 25.3843,30.33117" style="fill:#8ac546;fill-opacity:1;fill-rule:evenodd;stroke:none;stroke-width:7.44888" id="path1440-4-1-1" />
      <path d="m -4177.5036,-687.93942 c 1.3809,20.52324 2.5421,39.40683 1.1149,60.07377 -2.1959,31.32176 -21.9473,52.59139 -12.1751,80.22224 6.2332,-6.77774 12.0061,-13.53906 17.6501,-20.69296 24.5292,-31.23538 58.3829,-87.01039 42.5741,-124.61987 -4.4403,-10.55132 -20.3652,-30.85774 -35.8976,-26.2484 -14.1113,4.20419 -13.9756,20.98657 -13.2664,31.26522" style="fill:#8ac546;fill-opacity:1;fill-rule:evenodd;stroke:none;stroke-width:7.44888" id="path1442-5-2-4" />
      <path d="m -4225.2063,39.976558 c 0.6204,40.0511 3.2327,83.026722 7.848,128.943152 3.3676,13.12036 7.0929,31.33448 11.2144,54.7105 4.1296,23.32621 11.2352,46.94958 21.3305,70.89174 10.103,23.91245 24.4488,45.70932 43.1291,65.40568 18.6572,19.66653 45.4285,32.32219 80.22,37.95359 24.1322,5.37217 42.7916,5.27224 56.003,-0.33301 13.2202,-5.62758 22.0992,-13.73126 26.6535,-24.38386 4.5416,-10.63112 6.9022,-22.59323 7.0944,-35.97969 0.1772,-13.40644 -0.4112,-25.15858 -1.7521,-35.33814 -0.2346,-1.69536 -54.0229,-52.96231 -55.1015,-118.31585 6.5282,-64.6474 11.5896,-63.52186 37.006,-118.623431 22.0799,-47.829284 11.1927,-94.457881 12.9625,-145.08494 2.774,-80.528279 11.5436,-161.318149 32.4936,-239.226079 37.3799,-182.75819 122.3649,-291.36522 276.171,-347.00088 -13.3894,-11.13839 -34.2634,-24.19318 -51.766,-31.02391 -38.4289,-15.10549 -68.9401,-19.43629 -113.1784,-17.13087 -44.2948,2.3098 -92.8019,19.22783 -128.6191,44.01465 -34.0883,23.59956 -62.3821,49.40256 -85.8937,75.83779 -23.5602,26.42798 -43.7266,53.91129 -60.5743,82.43979 -16.8517,28.45404 -30.91,58.33146 -42.2218,89.49759 -11.3111,31.17433 -21.0133,64.03732 -29.0939,98.57473 -10.8887,45.03001 -19.8438,87.57433 -26.9277,127.70139 -7.0987,40.11598 -11.8288,79.53552 -14.2824,118.271229 -2.4515,38.756516 -3.349,78.14841417 -2.7151,118.198829" style="fill:#e90388;fill-opacity:1;fill-rule:evenodd;stroke:none;stroke-width:7.44888" id="path1444-7-01-6" />
      <path d="m -3740.5932,-164.38429 c 24.9262,0.21531 49.8248,8.62354 74.8224,25.2555 24.9732,16.63701 45.5641,38.49945 61.8183,65.521739 16.2334,27.070082 26.8666,57.889085 31.8164,92.496576 4.9618,34.588055 1.0787,69.835449 -11.6388,105.735335 -6.6743,22.10458 -20.5955,41.88964 -41.818,59.44058 -21.2398,17.51016 -45.357,31.64287 -72.4263,42.411 -27.044,10.76881 -55.632,17.53397 -85.674,20.28329 -30.0064,2.75534 -57.2,-0.0671 -81.563,-8.54757 -26.8115,-9.30957 -43.4651,-22.16864 -50.0358,-38.66344 -23.2286,-66.29881 32.0458,-121.951591 84.6269,-152.859292 11.8004,-6.900666 23.8616,-13.684986 35.8083,-20.397171 8.5498,-4.768119 8.482,-9.871312 -0.2339,-15.392392 -5.1056,-4.7807108 -14.772,-7.3691958 -29.0776,-7.8660608 -68.8791,0.899831 -136.2422,26.3832228 -165.199,92.9694798 -54.166,124.607966 21.0453,225.142516 140.3027,263.611446 44.9071,13.59793 90.5381,17.38423 136.9529,11.33275 46.3916,-6.03054 91.2465,-20.68844 134.5528,-43.98713 43.3533,-23.30226 80.2625,-52.51679 110.8662,-87.71572 20.5769,-26.19708 35.1565,-56.8432 43.8241,-91.92826 8.6555,-35.10285 10.9803,-71.028062 7.0548,-107.740588 -3.9166,-36.7334688 -14.018,-72.701109 -30.2999,-107.999143 -16.2817,-35.297209 -38.7668,-66.013429 -67.3884,-92.121789 -28.6485,-26.12987 -63.3089,-45.65486 -103.9953,-58.54596 -40.7097,-12.90738 -86.9069,-16.34875 -138.6446,-10.43072 16.4627,-17.69631 33.1013,-36.92113 49.9469,-57.7303 16.8226,-20.80466 32.3252,-43.2981 46.5331,-67.47267 14.1827,-24.191 26.6872,-49.8778 37.83,-76.87094 88.8681,-215.52894 -136.8085,-345.62595 -314.8054,-254.92686 226.0863,-56.6324 250.4232,143.88781 196.6103,279.97143 -10.4821,26.45248 -24.9077,52.23152 -44.0795,76.56706 -43.7548,55.47922 -72.9269,69.40429 -136.4852,94.70878 -21.8856,8.68842 -20.7138,22.59104 -24.0145,47.24236 -15.9226,118.571249 45.4479,47.0948 117.0324,30.1546 30.194,-7.16882 56.1423,-7.77299 86.9807,-6.50592" style="fill:#04aae8;fill-opacity:1;fill-rule:evenodd;stroke:none;stroke-width:7.44888" id="path1446-0-41-6" />
      <path d="m -3936.639,-686.52041 c 103.1694,-25.84461 164.3314,1.86221 195.2204,52.56304 21.9801,-12.36891 45.7518,-23.13772 71.4802,-32.44278 -8.9528,-7.46829 -21.2985,-15.78576 -33.7144,-22.52328 -5.8422,-3.06372 -11.8751,-5.88901 -18.0702,-8.45888 -0.9438,-0.39926 -1.8854,-0.77691 -2.8268,-1.15318 -37.1074,-14.20799 -67.1942,-18.28324 -110.3321,-16.02175 -33.9744,1.76762 -70.4456,12.13279 -101.7571,28.03683" style="fill:#ffcc29;fill-opacity:1;fill-rule:evenodd;stroke:none;stroke-width:7.44888" id="path1448-4-7-4" />
      <path d="m -4384.0376,-426.88265 c 2.7138,37.56979 38.9695,55.20054 66.0457,81.77375 65.0338,63.88306 68.8468,96.79971 78.9826,170.59802 12.1722,-55.96048 47.6223,-354.04472 -81.0603,-325.66815 -31.7084,7.01017 -68.6027,39.97294 -63.968,73.29638" style="fill:#fe318b;fill-opacity:1;fill-rule:evenodd;stroke:none;stroke-width:7.4489" id="path1450-0-60-7" />
      <path d="m -3566.5675,-301.85954 c -4.7426,2.31843 -8.3539,5.42747 -12.2301,10.56761 -6.2638,9.5862 -6.3627,11.09363 -12.0736,21.72187 7.9122,-1.34536 28.074,-8.88676 36.7205,-23.90246 2.0243,-11.10745 -2.5835,-8.2062 -7.5921,-9.30601" style="fill:#fe318b;fill-opacity:1;fill-rule:evenodd;stroke:none;stroke-width:1.04392" id="path1450-0-8-30-1" sodipodi:nodetypes="ccccc" />
      <path d="m -4363.2142,-689.43056 c 27.9438,33.27116 37.4052,91.5988 43.8537,132.37178 20.9188,-38.69916 21.9004,-87.27853 11.0624,-127.87413 -6.2964,-23.50497 -25.3043,-70.30179 -58.7798,-72.68769 -5.1353,-0.2383 -10.3421,0.62566 -15.1414,2.32034 -20.8345,7.26777 -14.7086,22.54847 -6.3793,35.53867 7.9331,12.33072 16.1828,19.3662 25.3844,30.33103" style="fill:#fe318b;fill-opacity:1;fill-rule:evenodd;stroke:none;stroke-width:7.4489" id="path1452-4-8-0" />
      <path d="m -3612.5288,-316.98761 c -6.1244,21.49533 -28.2525,42.33612 -43.7683,56.83416 22.5189,-2.23863 43.5025,-15.82013 57.6777,-32.13727 8.2013,-9.45685 22.6645,-31.04239 14.0343,-45.99445 -1.3785,-2.25697 -3.2471,-4.22676 -5.3524,-5.78347 -9.101,-6.7835 -13.8469,0.23051 -16.982,7.52332 -2.9681,6.93393 -3.5887,12.47677 -5.6093,19.55771" style="fill:#fe318b;fill-opacity:1;fill-rule:evenodd;stroke:none;stroke-width:3.83185" id="path1452-4-1-7-80" />
      <path d="m -3540.3319,-224.97833 c -16.1618,-15.43866 -45.7944,-22.21244 -66.5142,-26.86298 20.5544,-9.46738 45.5259,-8.37497 66.0102,-1.4769 11.8597,4.00489 35.2591,15.30068 35.3839,32.56419 -0.048,2.64432 -0.661,5.28893 -1.689,7.69715 -4.4155,10.45687 -12.0587,6.80964 -18.4539,2.10682 -6.0696,-4.47781 -9.4102,-8.94412 -14.737,-14.02828" style="fill:#fe318b;fill-opacity:1;fill-rule:evenodd;stroke:none;stroke-width:3.83185" id="path1452-4-1-4-6-5" />
      <path d="m -4177.5038,-687.91615 c 1.3809,20.52392 2.5422,39.40682 1.115,60.07378 -2.1961,31.32394 -21.9475,52.5911 -12.1751,80.22224 6.2333,-6.77789 12.0059,-13.53908 17.65,-20.69091 24.5291,-31.23539 58.383,-87.01039 42.5742,-124.62193 -4.4403,-10.55146 -20.3654,-30.85801 -35.8977,-26.24826 -14.1111,4.20405 -13.9757,20.98629 -13.2664,31.26508" style="fill:#fe318b;fill-opacity:1;fill-rule:evenodd;stroke:none;stroke-width:7.4489" id="path1454-1-58-3" />
      <path d="m -4225.2065,40.000375 c 0.6183,40.050551 3.2329,83.026175 7.8481,128.942595 3.3676,13.12037 7.0929,31.33654 11.2141,54.71257 4.1299,23.32402 11.2353,46.94738 21.3308,70.88967 10.1031,23.91245 24.4486,45.70934 43.129,65.40555 18.6573,19.66666 45.4285,32.32288 80.22,37.95442 24.1322,5.37147 42.7917,5.27237 56.0031,-0.33522 13.2201,-5.6277 22.0993,-13.73124 26.6535,-24.38385 4.5415,-10.62879 6.9022,-22.59118 7.0942,-35.97954 0.1789,-13.40604 -0.4095,-25.15886 -1.7519,-35.33842 -0.231,-1.69536 -54.023,-52.96218 -55.1015,-118.31504 6.528,-64.64808 11.5896,-63.52253 37.0061,-118.621917 22.0799,-47.831612 11.1925,-94.460071 12.9624,-145.084944 2.7741,-80.530479 11.5435,-161.320339 32.4935,-239.228119 37.3801,-182.75848 122.365,-291.36467 276.1711,-347.00116 -13.3894,-11.13756 -34.2634,-24.19305 -51.7659,-31.02377 -38.429,-15.10564 -68.9401,-19.4363 -113.1786,-17.13101 -44.2947,2.31063 -92.8018,19.22797 -128.6189,44.01479 -34.0884,23.60037 -62.3823,49.40242 -85.894,75.83847 -23.56,26.42935 -43.7264,53.91047 -60.5743,82.43924 -16.8517,28.45376 -30.9098,58.33214 -42.2218,89.49745 -11.3109,31.1742 -21.0132,64.03732 -29.0938,98.57692 -10.8886,45.02783 -19.8437,87.572 -26.9276,127.6992 -7.0988,40.11817 -11.8287,79.53553 -14.2825,118.271239 -2.4513,38.75651 -3.3489,78.14840817 -2.7151,118.199643" style="fill:#f03d9a;fill-opacity:1;fill-rule:evenodd;stroke:none;stroke-width:7.4489" id="path1456-2-4-8" />
      <path d="m -3713.2179,-164.36088 c 24.926,0.21585 49.8247,8.6234 74.8225,25.25604 24.973,16.63619 45.564,38.49864 61.8183,65.523249 16.2333,27.067754 26.8665,57.886894 31.8164,92.496575 4.9615,34.585865 1.0785,69.833122 -11.639,105.733006 -6.6742,22.1054 -20.5953,41.88964 -41.8181,59.44058 -21.2396,17.51098 -45.3568,31.64287 -72.4261,42.41347 -27.0439,10.76635 -55.6319,17.53383 -85.6742,20.28097 -30.0063,2.75765 -57.1998,-0.0753 -81.5629,-8.54772 -26.8116,-9.30888 -43.4648,-22.16781 -50.0358,-38.66343 -23.2283,-66.29869 32.0462,-121.950778 84.6268,-152.859163 11.8008,-6.900665 23.8618,-13.684438 35.8085,-20.397308 8.5499,-4.765792 8.482,-9.871176 -0.231,-15.392255 -5.1055,-4.7808478 -14.7718,-7.3693328 -29.0774,-7.8653768 -68.8791,0.89901 -136.2423,26.3832228 -165.199,92.9686578 -54.1661,124.608105 21.0452,225.142525 140.3025,263.613915 44.9071,13.59793 90.5382,17.38176 136.953,11.33056 46.3915,-6.03081 91.2465,-20.68858 134.5529,-43.98728 43.3532,-23.30239 80.2624,-52.51692 110.8661,-87.71517 20.5766,-26.19529 35.1565,-56.84375 43.8238,-91.92579 8.6559,-35.10586 10.9807,-71.031072 7.0551,-107.743737 -3.9167,-36.7333318 -14.018,-72.700972 -30.2998,-107.998324 -16.2819,-35.295849 -38.7669,-66.014099 -67.3885,-92.122609 -28.6484,-26.12987 -63.3088,-45.65485 -103.9954,-58.54527 -40.7095,-12.90807 -86.907,-16.34711 -138.6445,-10.43114 16.4626,-17.69645 33.1012,-36.92126 49.947,-57.73057 16.8224,-20.80397 32.3249,-43.29796 46.533,-67.47048 14.1828,-24.19319 26.6871,-49.87984 37.8299,-76.87313 88.8683,-215.52825 -136.8084,-345.62582 -314.8055,-254.92672 226.0865,-56.63241 250.4234,143.88767 196.6104,279.97142 -10.4821,26.45468 -24.9074,52.23235 -44.0794,76.56707 -43.7549,55.47921 -72.9267,69.40484 -136.4852,94.70864 -21.8856,8.68911 -20.7139,22.59117 -24.0145,47.24454 -15.9226,118.569079 45.448,47.09275 117.0324,30.15242 30.194,-7.16867 56.1422,-7.77204 86.9806,-6.50564" style="fill:#90e0ef;fill-opacity:1;fill-rule:evenodd;stroke:none;stroke-width:7.4489" id="path1458-0-0-0" />
      <path d="m -3936.6391,-686.49742 c 103.1693,-25.84433 164.3313,1.8625 195.2202,52.56333 21.9803,-12.36906 45.7519,-23.13554 71.4802,-32.44292 -8.9526,-7.4683 -21.2987,-15.78577 -33.7142,-22.52314 -5.8422,-3.06154 -11.875,-5.88901 -18.0703,-8.45902 -0.9438,-0.39475 -1.8854,-0.77692 -2.8269,-1.15237 -37.1073,-14.20881 -67.1941,-18.28393 -110.3319,-16.02244 -33.9743,1.7675 -70.4457,12.13499 -101.7571,28.03656" style="fill:#90e0ef;fill-opacity:1;fill-rule:evenodd;stroke:none;stroke-width:7.4489" id="path1460-0-0-2" />
      <path style="fill:#0077b6;fill-opacity:1;stroke-width:5.29295" d="m -4090.3118,394.10478 c -44.5003,-15.77975 -78.2764,-65.46604 -95.6026,-140.63505 -11.2865,-48.96728 -22.1896,-260.7451078 -11.8886,-344.745291 14.7996,-120.689029 48.905,-281.681009 84.718,-368.463509 26.5016,-64.22129 77.469,-125.05035 133.3952,-178.96383 34.3298,-33.09308 60.3426,-44.4877 84.4791,-56.52427 16.4921,-8.22454 40.2644,-20.69611 91.8024,-20.42044 68.4269,0.36492 94.7595,14.78069 137.0266,54.75596 69.79,66.00383 78.6765,142.11292 20.5956,264.72289 -26.0459,54.98453 -45.3757,84.91644 -85.9327,133.06464 -15.466,18.36072 -32.4144,34.39451 -32.4144,38.255 0,8.39057 16.3472,13.37742 44.1754,13.47666 50.043,0.17889 121.2068,36.04361 158.9071,80.08796 56.4579,65.958393 87.6248,186.847268 72.2541,280.25764 -7.854,47.73018 -30.0079,102.90046 -52.9519,131.8697 -36.8868,46.57276 -108.7269,90.12805 -178.4648,108.19872 -84.2377,21.82849 -172.6942,-3.13353 -236.2204,-66.66072 -17.2888,-17.28883 -34.4244,-30.28628 -38.0801,-28.88356 -4.3433,1.6669 -7.326,17.53466 -8.6104,45.8009 -1.7122,37.7142 -3.5552,44.53821 -14.3963,53.31751 -14.7473,11.94131 -41.7562,12.49403 -72.7913,1.48909 z m 360.5736,-137.39982 c 26.5873,-10.75855 45.4947,-23.27187 66.9887,-44.33427 25.6882,-25.17363 31.5221,-34.69454 41.0292,-66.96718 20.2639,-68.78738 12.0889,-159.558611 -19.2241,-213.459491 -18.982,-32.675329 -52.8073,-68.125159 -76.5724,-80.248929 -27.1861,-13.86922 -80.2855,-3.18759 -120.826,4.64342 -40.8041,7.88248 -100.9361,37.46207 -111.159,53.348989 -22.0405,34.24915 -39.6198,130.669851 -25.9585,139.11326 3.2529,2.010179 22.1595,-2.179633 49.8874,-11.061733 48.8921,-15.661356 77.5553,-19.571254 94.8444,-12.935856 13.8377,5.309741 9.7825,10.859839 -20.3675,27.875184 -62.4038,35.218512 -92.9977,78.670596 -92.9977,132.084346 0,45.37206 29.3565,64.93059 59.4726,76.87025 21.7865,8.63695 46.4682,12.29814 70.2049,11.96457 28.7795,-0.40228 55.918,-5.25376 84.678,-16.89256 z m -136.3846,-506.38251 c 83.5662,-40.30295 160.3759,-163.56487 160.134,-256.97824 -0.1055,-37.84478 -8.0687,-54.0932 -32.3841,-66.00904 -24.3653,-11.94063 -40.737,-6.47101 -72.5765,24.24684 -45.8964,44.27978 -80.8727,117.956 -115.6195,217.1252 -34.9934,99.87316 -23.2985,122.0036 60.4461,81.61524 z" id="path12780-3-3-5" sodipodi:nodetypes="ssssssssssssssssssssssssssssssssssasssssss" />
   </g>
</svg>
